<svg id="Capa_1" enable-background="new 0 0 496.697 496.697" height="512" viewBox="0 0 496.697 496.697" width="512" xmlns="http://www.w3.org/2000/svg"><g><g><path d="m286.128 272.609-106.8 219.531c9.863 2.964 20.56 4.556 32.01 4.556h20.877c78.81 0 142.698-63.888 142.698-142.698v-81.39h-88.785z" fill="#efedff"/><path d="m286.035 354.302v-81.39h-66.74v74.823c0 19.072-5.659 33.047-23.416 33.047h-34.194l-27.912-26-28.954 26c0 53.084 27.893 97.682 74.415 111.661 61.434-15.918 106.801-71.73 106.801-138.141z" fill="#d4d4ff"/></g><g><path d="m262.056 288.792v-204.5c-15.468-17.252-15.586-43.347-.276-60.74-10.272-9.717-22.564-17.32-36.181-22.111-16.535-5.818-33.819 6.723-33.819 24.251-8.906 0-18.046 2.055-27.124 5.702-24.147 9.701-44.776 28.352-61.047 48.661-16.133 20.137-28.074 42.857-32.169 62.59-1.599 7.702 4.288 14.932 12.154 14.932h28.156c-11.406 11.681-19.809 25.479-23.252 40.484-1.769 7.709 4.218 15.033 12.127 15.033 0 51.801 40.916 91.157 86.418 105.595 31.293 9.929 65.626 13.312 98.992 10.156-14.628-7.835-23.979-23.159-23.979-40.053z" fill="#9ea2e3"/><path d="m452.12 142.646c-4.096-19.733-16.037-42.453-32.169-62.59-16.271-20.309-36.9-38.959-61.047-48.661-9.077-3.647-18.217-5.702-27.124-5.702 0-17.529-17.284-30.069-33.818-24.251-13.617 4.791-25.91 12.394-36.182 22.111-15.31 17.392-15.191 43.487.276 60.74v204.499c0 16.895 9.351 32.218 23.979 40.054 17.271-1.634 34.282-5.017 50.479-10.156 45.545-14.451 86.419-53.584 86.419-105.595 7.91 0 13.896-7.324 12.127-15.033-3.443-15.005-11.846-28.803-23.252-40.484h28.156c7.868-.001 13.754-7.23 12.156-14.932z" fill="#d4d4ff"/></g><g><path d="m182.394 52.638c4.142-2.488 4.614-8.256.935-11.388-8.858-7.543-20.056-11.562-31.376-11.562-44.718 0-63.693 54.056-34.159 82.791 3.334 3.244 8.847 2.235 11.015-1.881 13.292-25.232 33.882-46.125 53.585-57.96z" fill="#d4d4ff"/><path d="m358.903 31.395c-7.02 1.908-13.409 5.349-18.778 9.948-3.637 3.115-3.044 8.864 1.067 11.32 19.259 11.506 39.983 31.925 53.59 57.81 2.208 4.201 7.835 5.094 11.178 1.725 9.075-9.146 14.052-21.479 14.052-34.102.001-31.78-30.215-55.099-61.109-46.701z" fill="#efedff"/><g><path d="m263.452 299.98c66.457.25 118.327-53.561 118.327-119.989 0-42.835-22.446-80.424-56.217-101.655-20.048-12.604-46.243-10.255-63.506 5.956-.092.087-.463.084-.556-.004l-57.617 20v159.965z" fill="#efedff"/><path d="m215.217 192.566c-.372-40.973 16.41-80.234 46.283-108.278-17.145-16.097-43.174-18.629-63.129-6.186-34.197 21.324-56.881 59.38-56.588 102.717.438 64.948 55.332 118.173 120.273 119.157.467.007.931.001 1.396.003-30.373-27.496-47.863-66.443-48.235-107.413z" fill="#d4d4ff"/></g></g><g><g fill="#313d40"><path d="m331.725 172.739c-4.143 0-7.5 3.357-7.5 7.5v10c0 4.143 3.357 7.5 7.5 7.5s7.5-3.357 7.5-7.5v-10c0-4.142-3.357-7.5-7.5-7.5z"/><path d="m191.834 172.739c-4.143 0-7.5 3.357-7.5 7.5v10c0 4.143 3.357 7.5 7.5 7.5s7.5-3.357 7.5-7.5v-10c0-4.142-3.358-7.5-7.5-7.5z"/></g><path d="m226.905 155.228c2.568 0 5.07-1.32 6.469-3.694 2.103-3.568.914-8.166-2.655-10.269l-22.375-13.182c-3.567-2.101-8.165-.914-10.269 2.655-2.103 3.568-.914 8.166 2.655 10.269l22.375 13.182c1.196.704 2.506 1.039 3.8 1.039z" fill="#8288cb"/><path d="m325.484 130.738c-2.103-3.569-6.7-4.756-10.269-2.655l-22.375 13.182c-3.569 2.103-4.758 6.7-2.655 10.269 1.398 2.374 3.9 3.694 6.469 3.694 1.294 0 2.604-.335 3.8-1.039l22.375-13.182c3.569-2.103 4.758-6.7 2.655-10.269z" fill="#8288cb"/><path d="m301.78 219.253c-4.143 0-7.5 3.357-7.5 7.5 0 6.893-5.607 12.5-12.5 12.5s-12.5-5.607-12.5-12.5v-10.729l12.803-12.802c2.93-2.929 2.93-7.678.001-10.606s-7.678-2.93-10.606-.001l-9.698 9.697-9.695-9.696c-2.929-2.929-7.678-2.93-10.606-.001-2.93 2.929-2.93 7.678-.001 10.606l12.804 12.805v10.728c0 6.893-5.607 12.5-12.5 12.5s-12.5-5.607-12.5-12.5c0-4.143-3.357-7.5-7.5-7.5s-7.5 3.357-7.5 7.5c0 12.563 8.472 23.178 20 26.452v1.048c0 4.143 3.357 7.5 7.5 7.5s7.5-3.357 7.5-7.5v-1.048c4.84-1.375 9.139-4.042 12.5-7.607 3.361 3.565 7.66 6.232 12.5 7.607v1.048c0 4.143 3.357 7.5 7.5 7.5s7.5-3.357 7.5-7.5v-1.048c11.528-3.274 20-13.889 20-26.452-.002-4.144-3.359-7.501-7.502-7.501z" fill="#9ea2e3"/></g><path d="m223.057 298.197c-1.773-13.735-15.395-22.537-28.685-18.681-22.94 6.653-43.519 17.917-60.596 32.844-17.077-14.927-37.656-26.19-60.596-32.844-13.309-3.86-26.949 4.97-28.692 18.738-1.406 11.112 5.861 21.453 16.619 24.568.239.069.477.139.715.209 25.541 7.563 42.998 31.115 42.998 57.752 16.47-14.79 41.438-14.791 57.909-.002l.002.002c0-26.502 17.261-50.05 42.65-57.649.393-.117.788-.233 1.183-.348 10.727-3.105 17.923-13.515 16.493-24.589z" fill="#8288cb"/><g><path d="m348.849 364.5c-4.143 0-7.5 3.357-7.5 7.5 0 4.136-3.364 7.5-7.5 7.5s-7.5-3.364-7.5-7.5c0-.593-.076-1.167-.206-1.72 16.696-5.74 20.138-28.78 7.706-28.78-4.143 0-7.5 3.357-7.5 7.5 0 4.136-3.364 7.5-7.5 7.5s-7.5-3.364-7.5-7.5c0-4.143-3.357-7.5-7.5-7.5s-7.5 3.357-7.5 7.5c0 9.854 6.37 18.242 15.206 21.28-2.004 8.537 6.339 24.22 22.294 24.22 12.406 0 22.5-10.094 22.5-22.5 0-4.143-3.358-7.5-7.5-7.5z" fill="#d4d4ff"/><path d="m243.848 433.5c-4.143 0-7.5 3.357-7.5 7.5 0 4.136-3.364 7.5-7.5 7.5s-7.5-3.364-7.5-7.5c0-.593-.076-1.167-.206-1.72 16.696-5.74 20.138-28.78 7.706-28.78-4.143 0-7.5 3.357-7.5 7.5 0 4.136-3.364 7.5-7.5 7.5s-7.5-3.364-7.5-7.5c0-4.143-3.357-7.5-7.5-7.5s-7.5 3.357-7.5 7.5c0 4.136-3.364 7.5-7.5 7.5s-7.5-3.364-7.5-7.5c0-4.143-3.357-7.5-7.5-7.5-12.433 0-8.983 23.042 7.706 28.78-.13.553-.206 1.127-.206 1.72 0 4.136-3.364 7.5-7.5 7.5s-7.5-3.364-7.5-7.5c0-4.143-3.357-7.5-7.5-7.5s-7.5 3.357-7.5 7.5c0 19.431 23.086 29.672 37.5 16.752 8.556 7.669 21.452 7.662 30 0 14.409 12.916 37.5 2.684 37.5-16.752 0-4.143-3.357-7.5-7.5-7.5zm-45 15c-4.136 0-7.5-3.364-7.5-7.5 0-.593-.076-1.167-.206-1.72 2.875-.988 5.488-2.54 7.706-4.528 2.218 1.988 4.832 3.539 7.706 4.528-.13.553-.206 1.127-.206 1.72 0 4.136-3.364 7.5-7.5 7.5z" fill="#9ea2e3"/><path d="m303.849 433.5c-4.143 0-7.5 3.357-7.5 7.5 0 4.136-3.364 7.5-7.5 7.5s-7.5-3.364-7.5-7.5c0-4.143-3.357-7.5-7.5-7.5-14.457 0-7.2 30 15 30 12.406 0 22.5-10.094 22.5-22.5 0-4.143-3.358-7.5-7.5-7.5z" fill="#d4d4ff"/><g><path d="m280.882 392.416c.296.807.466 1.674.466 2.584 0 4.136 3.364 7.5 7.5 7.5s7.5-3.364 7.5-7.5c0-4.143 3.357-7.5 7.5-7.5 14.425 0 7.238 30-15 30-5.709 0-10.923-2.144-14.895-5.661v-11.901z" fill="#d4d4ff"/><path d="m273.849 387.5c-4.143 0-7.5 3.357-7.5 7.5 0 4.136-3.364 7.5-7.5 7.5-4.176 0-7.5-3.431-7.5-7.5 0-4.143-3.357-7.5-7.5-7.5-14.458 0-7.194 30 15 30 5.758 0 11.122-2.09 15.105-5.661 2.758-6.252 5.08-12.739 6.928-19.423-1.054-2.867-3.801-4.916-7.033-4.916z" fill="#9ea2e3"/></g></g></g></svg>