<svg id="Capa_1" enable-background="new 0 0 512 512" height="512" viewBox="0 0 512 512" width="512" xmlns="http://www.w3.org/2000/svg"><g><path d="m422.824 504.005c-1.802-37.768-14.311-62.71-43.082-87.243-32.052-27.33-64.675-38.89-76.785-42.53-2.104-.632-4.398-1.258-6.543-1.732-1.941-.428-3.475-3.627-4.916-4.634-10.701-7.482-8.601-28.595-8.601-28.595h-26.897-26.898s2.07 20.81-8.372 28.431c-.982.717-8.165 7.689-10.269 8.321-12.109 3.64-41.589 11.322-73.641 38.652-28.771 24.533-46.873 51.562-48.675 89.329h334.679z" fill="#f6a96c"/><path d="m291.501 367.858c1.508 1.065 3.276 1.85 5.341 2.266 2.046.413 4.076.887 6.076 1.487 12.081 3.626 46.665 15.707 78.74 43.066 28.772 24.533 46.877 59.557 48.676 97.323h-348.668c1.799-37.766 19.904-72.791 48.676-97.323 32.075-27.36 66.66-39.44 78.741-43.066 1.999-.6 4.029-1.074 6.076-1.487 2.064-.416 3.833-1.202 5.341-2.266l28.025 55.294c3.103 6.123 11.848 6.123 14.951 0z" fill="#d9e7ec"/><path d="m430.33 511.997h-19.944c-4.114-34.128-21.517-65.406-47.869-87.88-31.309-26.712-65.015-38.859-77.841-42.788l6.83-13.474c1.497 1.064 3.255 1.847 5.304 2.263 2.059.418 4.104.89 6.117 1.495 12.095 3.631 46.669 15.711 78.732 43.062 28.768 24.531 46.881 59.554 48.671 97.322z" fill="#b6c4cf"/><path d="m218.607 476.993h-56.463c-2.403 0-4.35-1.948-4.35-4.35v-20.541c0-2.403 1.948-4.35 4.35-4.35h56.463c2.403 0 4.35 1.948 4.35 4.35v20.541c.001 2.402-1.947 4.35-4.35 4.35z" fill="#f5f8f9"/><path d="m222.963 452.104v20.54c0 2.396-1.954 4.351-4.351 4.351h-20.653c2.407 0 4.351-1.954 4.351-4.351v-20.54c0-2.407-1.944-4.351-4.351-4.351h20.653c2.396.001 4.351 1.945 4.351 4.351z" fill="#b6c4cf"/><path d="m372.507 92.722c-14.331-18.241-33.414-36.133-53.752-46.497-39.495-20.127-86.207-21.229-125.513.001-21.62 11.677-38.684 27.25-53.75 46.496-32.28 41.083-71.043 113.571-50.236 167.018 13.65 35.065 49.39 56.85 82.549 70.025 1.242.494 12.641 4.085 12.641 4.698 0-.085 143.106-.085 143.106 0 0-.613 11.399-4.204 12.641-4.698 33.159-13.176 68.899-34.961 82.549-70.025 20.808-53.447-17.955-125.935-50.235-167.018z" fill="#596c76"/><path d="m422.739 259.737c-13.649 35.064-49.381 56.848-82.542 70.024-1.245.494-12.641 4.094-12.641 4.701 0-.021-9.031-.041-22.546-.051.555-.741 11.396-4.166 12.61-4.649 33.161-13.176 68.893-34.961 82.552-70.024 20.798-53.444-17.959-125.936-50.245-167.017-14.327-18.237-33.407-36.134-53.741-46.491-16.55-8.434-34.364-13.526-52.374-15.027 25.488-2.17 51.49 3.075 74.941 15.027 20.345 10.357 39.425 28.254 53.752 46.491 32.286 41.08 71.042 113.573 50.234 167.016z" fill="#465a61"/><g fill="#f6a96c"><path d="m145.69 266.6h-4.954c-14.94 0-27.051-12.111-27.051-27.051 0-14.94 12.111-27.051 27.051-27.051h4.954z"/><path d="m366.31 266.6h4.954c14.94 0 27.051-12.111 27.051-27.051 0-14.94-12.111-27.051-27.051-27.051h-4.954z"/></g><path d="m356.431 146.22 7.403 41.55v62.546c0 3.837-.193 7.633-.568 11.368-2.659 26.552-13.708 46.413-31.571 64.277-20.371 20.371-44.595 28.414-75.694 28.414-58.351 0-99.751-34.277-108.772-91.105-.588-3.707-1.353-10.596-1.353-14.433l-.186-10.377-2.281-12.168v-34.81l10.792-45.262 61.182-28.473z" fill="#fed2a4"/><path d="m356.431 146.216 12.165 46.069v34.008l-2.286 9.768.288 10.948c0 3.837-.195 7.632-.576 11.366-2.654 26.557-16.462 49.73-34.328 67.586-20.365 20.376-44.591 33.207-75.694 33.207-3.466 0-6.902-.154-10.286-.473 27-2.427 51.232-14.4 69.325-32.502 17.866-17.856 29.756-41.687 32.41-68.245.381-3.734.576-7.529.576-11.366v-100.366z" fill="#ffbd86"/><g><g><path d="m209.979 247.049c-4.142 0-7.5-3.358-7.5-7.5v-13.838c0-4.142 3.358-7.5 7.5-7.5s7.5 3.358 7.5 7.5v13.838c0 4.142-3.358 7.5-7.5 7.5z" fill="#596c76"/></g><g><path d="m302.02 247.049c-4.143 0-7.5-3.358-7.5-7.5v-13.838c0-4.142 3.357-7.5 7.5-7.5s7.5 3.358 7.5 7.5v13.838c0 4.142-3.357 7.5-7.5 7.5z" fill="#596c76"/></g></g><path d="m368.591 226.292v20.289c0 3.837-.193 7.633-.568 11.368-2.659 26.552-14.545 50.384-32.408 68.247-20.371 20.371-48.516 32.977-79.615 32.977-58.351 0-106.329-44.385-112.023-101.224-.376-3.735-.568-7.531-.568-11.368v-20.289s23.271 35.446 84.365 45.128c18.693 2.963 37.76 2.963 56.453 0 61.093-9.682 84.364-45.128 84.364-45.128z" fill="#f5f8f9"/><path d="m368.596 226.289v20.293c0 3.837-.195 7.632-.576 11.366-2.654 26.557-14.544 50.389-32.41 68.245-20.365 20.376-48.507 32.976-79.61 32.976-2.581 0-5.161-.113-7.735-.268-.854-.051-1.707-.123-2.551-.206 27-2.427 51.232-14.4 69.325-32.502 17.866-17.856 29.756-41.687 32.41-68.245.381-3.734.576-7.529.576-11.366v-.401c14.379-10.46 20.571-19.892 20.571-19.892z" fill="#d9e7ec"/><path d="m319.345 0h-3.049-135.272c-13.741 0-24.297 12.183-22.313 25.78 2.032 13.925 6.115 31.595 14.306 48.063 6.975 14.022 21.359 22.825 37.021 22.825h76.584 2.236s16.312-1.665 17.683-1.803c14.015-1.403 24.338-8.568 30.691-21.341 8.191-16.468 12.399-32.416 14.431-46.342 1.866-12.788-5.757-24.485-18.293-25.813-.794-.084-14.025-1.369-14.025-1.369z" fill="#d9e7ec"/><path d="m353.291 25.778c-2.037 13.927-6.12 31.597-14.307 48.064-6.974 14.019-21.363 22.824-37.018 22.824h-21.096c15.665 0 30.044-8.804 37.018-22.824 8.198-16.467 12.281-34.138 14.307-48.064 1.985-13.597-8.568-25.776-22.309-25.776h21.085c13.742.001 24.305 12.179 22.32 25.776z" fill="#b6c4cf"/><path d="m143.406 191.482c14.237-2.24 43.978-12.603 63.343-59.103 0 0 39.677 70.825 161.845 60.524l2.377-.225-2.377-67.493-141.324-7.439h-83.605l-5.464 73.763z" fill="#596c76"/></g></svg>