<svg id="Capa_1" enable-background="new 0 0 512 512" height="512" viewBox="0 0 512 512" width="512" xmlns="http://www.w3.org/2000/svg"><g><g><path d="m409.776 311.782c-27.749 0-53.683-14.493-73.023-40.811-18.831-25.622-29.201-59.567-29.201-95.581s10.37-69.959 29.201-95.581c19.341-26.316 45.274-40.809 73.023-40.809s53.683 14.493 73.023 40.81c18.83 25.622 29.2 59.567 29.2 95.581s-10.37 69.959-29.2 95.581c-19.34 26.317-45.274 40.81-73.023 40.81zm0-257.782c-48.096 0-87.225 54.456-87.225 121.391 0 66.936 39.129 121.392 87.225 121.392s87.224-54.457 87.224-121.392-39.128-121.391-87.224-121.391z" fill="#edebed"/></g><g><path d="m102.224 311.782c-27.749 0-53.683-14.493-73.023-40.811-18.831-25.621-29.201-59.567-29.201-95.58s10.37-69.959 29.2-95.581c19.341-26.317 45.275-40.81 73.024-40.81s53.683 14.493 73.023 40.81c18.831 25.622 29.201 59.567 29.201 95.581s-10.37 69.959-29.201 95.581c-19.341 26.317-45.274 40.81-73.023 40.81zm0-257.782c-48.096 0-87.224 54.456-87.224 121.391 0 66.936 39.128 121.392 87.224 121.392s87.225-54.456 87.225-121.392c-.001-66.935-39.13-121.391-87.225-121.391z" fill="#edebed"/></g><g><path d="m278.75 470.326c-14.957 3.566-30.543 3.566-45.5 0-97.333-23.204-166.014-110.183-166.014-210.244v-32.439-30c0-26.73 36.906-48.274 63.632-47.805 18.569.326 24.826-1.142 47.819-6.045 23.553-5.022 43.597-12.511 59.777-20.079 11.221-5.248 24.095-5.773 35.611-1.207 19.131 7.585 42.708 14.988 70.174 19.683 19.274 3.295 37.245 4.706 53.468 4.965 26.088.416 32.048 6.595 32.048 32.686l15 45v35.24c-.001 100.062-68.682 187.041-166.015 210.245z" fill="#bdd8fc"/><path d="m402.016 132.426c7.909 8.507 12.748 19.892 12.748 32.417v80.24c0 100.061-68.681 187.04-166.015 210.243-14.957 3.566-30.542 3.566-45.5 0-10.789-2.572-21.223-5.931-31.253-10.001 18.64 11.209 39.208 19.746 61.253 25.001 14.957 3.566 30.542 3.566 45.5 0 97.333-23.204 166.014-110.183 166.014-210.243v-80.24c.001-24.64-18.695-44.889-42.747-47.417z" fill="#9dc7fb"/><path d="m397.716 132.156c-16.223-.259-34.194-1.67-53.468-4.965-27.466-4.695-51.043-12.098-70.174-19.683-11.515-4.566-24.39-4.042-35.611 1.207-16.18 7.567-36.224 15.057-59.776 20.079-22.994 4.903-44.25 6.372-62.819 6.045-26.726-.47-48.632 21.075-48.632 47.805v45c0-26.73 21.906-48.274 48.632-47.805 18.569.326 39.825-1.142 62.819-6.045 23.553-5.022 43.597-12.511 59.776-20.079 11.221-5.249 24.095-5.773 35.611-1.207 19.131 7.585 42.708 14.988 70.174 19.683 19.274 3.295 37.245 4.706 53.468 4.965 26.088.416 47.049 21.595 47.049 47.686v-45c-.001-26.091-20.961-47.27-47.049-47.686z" fill="#f7f6f7"/><path d="m402.016 132.426c7.909 8.507 12.748 19.892 12.748 32.417v15.739c4.949 1.978 9.523 4.779 13.539 8.258 2.9 2.512 5.496 5.372 7.712 8.505 2.996 4.235 5.306 8.952 6.78 13.931 1.301 4.396 1.964 8.977 1.969 13.566v-45c0-24.639-18.696-44.888-42.748-47.416z" fill="#e2dfe3"/><g><g><path d="m255.945 266.734c-1.942 0-3.884-.008-5.826-.023-45.16-.363-90.545-4.96-134.895-13.662-4.064-.797-6.713-4.739-5.915-8.804.797-4.063 4.734-6.714 8.804-5.915 43.439 8.522 87.894 13.025 132.127 13.381 48.07.396 96.42-4.116 143.646-13.381 4.073-.796 8.007 1.851 8.804 5.915.798 4.065-1.851 8.007-5.915 8.804-46.308 9.086-93.657 13.685-140.83 13.685z" fill="#9dc7fb"/></g><g><path d="m255.957 325.553c-1.609 0-3.213-.007-4.822-.02-37.357-.3-74.904-4.103-111.597-11.303-4.064-.797-6.713-4.739-5.915-8.804.797-4.063 4.734-6.712 8.804-5.915 35.782 7.021 72.397 10.729 108.829 11.021 39.599.322 79.417-3.39 118.317-11.021 4.075-.795 8.008 1.852 8.804 5.915.798 4.065-1.851 8.007-5.915 8.804-38.31 7.517-77.483 11.323-116.505 11.323z" fill="#9dc7fb"/></g><g><path d="m255.962 378.824c-1.39 0-2.778-.006-4.168-.017-32.301-.261-64.762-3.548-96.481-9.772-4.064-.797-6.713-4.739-5.915-8.804.797-4.063 4.729-6.715 8.804-5.915 30.81 6.045 62.34 9.238 93.714 9.491 34.109.286 68.39-2.919 101.884-9.491 4.068-.797 8.008 1.851 8.804 5.915.798 4.064-1.851 8.007-5.915 8.804-33.122 6.499-66.987 9.789-100.727 9.789z" fill="#9dc7fb"/></g></g></g></g></svg>