<?xml version="1.0" standalone="no"?>
<!DOCTYPE svg PUBLIC "-//W3C//DTD SVG 20010904//EN"
 "http://www.w3.org/TR/2001/REC-SVG-20010904/DTD/svg10.dtd">
<svg version="1.0" xmlns="http://www.w3.org/2000/svg"
 width="700.000000pt" height="700.000000pt" viewBox="0 0 700.000000 700.000000"
 preserveAspectRatio="xMidYMid meet">
<metadata>
Created by potrace 1.11, written by Peter Selinger 2001-2013
</metadata>
<g transform="translate(0.000000,700.000000) scale(0.100000,-0.100000)"
fill="#000000" stroke="none">
<path d="M1308 6465 c-2 -2 -29 -6 -61 -10 -275 -31 -579 -213 -791 -474 -106
-131 -222 -327 -290 -491 -23 -55 -84 -242 -90 -272 -2 -13 -9 -41 -14 -63
-11 -40 -13 -52 -33 -180 -6 -38 -13 -81 -16 -95 -2 -14 -6 -122 -7 -240 -6
-454 82 -819 282 -1170 47 -81 114 -183 132 -200 3 -3 18 -22 34 -43 30 -40
147 -161 205 -211 56 -47 182 -129 258 -165 l70 -34 12 -56 c17 -79 87 -302
123 -391 208 -518 534 -950 966 -1279 187 -142 466 -303 663 -382 186 -74 440
-147 584 -167 96 -14 312 -7 412 12 397 78 895 312 1208 567 151 124 316 282
410 394 28 33 55 66 62 73 35 37 170 232 232 335 152 252 259 511 334 807 l22
85 100 53 c450 240 766 749 861 1387 26 174 25 559 -1 705 -3 14 -7 39 -10 55
-86 526 -355 991 -722 1245 -380 265 -864 273 -1248 22 -278 -181 -516 -494
-644 -847 -27 -75 -31 -80 -58 -79 -35 1 -235 61 -385 115 -207 75 -248 88
-292 94 -65 9 -125 9 -178 1 -26 -4 -51 -7 -55 -8 -12 0 -122 -43 -178 -68
-141 -64 -180 -79 -350 -136 -71 -24 -137 -44 -146 -44 -12 0 -23 16 -35 53
-189 581 -619 1008 -1094 1087 -64 11 -265 21 -272 15z m317 -234 c71 -20 242
-94 255 -110 3 -3 32 -24 65 -46 111 -75 252 -229 357 -392 68 -105 201 -414
185 -430 -6 -5 -104 -27 -171 -37 -21 -4 -48 -8 -60 -11 -23 -5 -64 -11 -141
-20 -27 -3 -63 -8 -80 -10 -58 -8 -241 -17 -400 -20 -88 -2 -169 -6 -180 -8
-296 -70 -495 -280 -529 -557 -7 -59 -8 -1241 -1 -1325 2 -27 7 -83 10 -123
l7 -73 -29 17 c-212 135 -395 354 -520 623 -30 66 -108 281 -118 329 -23 105
-44 216 -49 252 -25 181 -25 428 -1 608 2 18 7 52 10 75 10 74 66 289 96 372
64 173 194 406 284 510 185 214 425 364 624 391 25 3 48 8 50 10 2 2 61 3 130
1 93 -3 147 -10 206 -26z m4190 4 c87 -22 232 -89 316 -146 35 -23 112 -90
170 -148 351 -352 533 -927 485 -1531 -3 -47 -8 -96 -10 -110 -3 -14 -7 -42
-10 -62 -13 -85 -49 -231 -85 -338 -121 -363 -339 -658 -609 -824 -11 -7 -13
3 -8 50 15 148 17 228 18 844 1 645 1 656 -21 735 -50 180 -169 331 -326 412
-109 56 -175 71 -350 77 -175 7 -298 16 -420 31 -16 2 -52 7 -80 10 -43 5
-173 26 -255 41 -14 2 -42 7 -63 10 -20 4 -40 10 -42 14 -3 4 13 52 35 105
110 271 261 485 440 626 41 33 80 64 87 69 61 50 271 135 363 147 19 3 37 7
39 9 12 11 263 -5 326 -21z"/>
</g>
</svg>
